# xmcd
#
# Track frame offsets:
#  150
#  17280
#  35223
#  57786
#  79673
#  98304
#  113111
#  131304
#  156422
#  180445
#
# Disc length: 2644 seconds
#
# Revision: 0
# Processed by: cddbd v1.5.1PL0 Copyright (c) Steve Scherf et al.
# Submitted via: Collectorz.com_Music_Collector 6.9
#
DISCID=6b0a520a
DTITLE=P.J. O'Brien - Blues People
DYEAR=2005
DGENRE=Blues
TTITLE0=Beauty Queen
TTITLE1=One And Only
TTITLE2=The Kind Of Mind
TTITLE3=Bet You Don't
TTITLE4=Muleshoe New Mexico
TTITLE5=The Great Shame 1846
TTITLE6=Everybody's Crying
TTITLE7=A Home In My Heart
TTITLE8=Elbow Grease
TTITLE9=Take My Hand
EXTD=
EXTT0=
EXTT1=
EXTT2=
EXTT3=
EXTT4=
EXTT5=
EXTT6=
EXTT7=
EXTT8=
EXTT9=
PLAYORDER=
